<?xml version="1.0" ?><!DOCTYPE svg  PUBLIC '-//W3C//DTD SVG 1.1//EN'  'http://www.w3.org/Graphics/SVG/1.1/DTD/svg11.dtd'><svg height="512px" style="enable-background:new 0 0 512 512;" version="1.1" viewBox="0 0 512 512" width="512px" xml:space="preserve" xmlns="http://www.w3.org/2000/svg" xmlns:xlink="http://www.w3.org/1999/xlink"><g id="_x38_2"><g><g><path d="M315.479,386.251c-0.4,0-0.655-0.066-0.861-0.109c-1.128-0.261-2.068-0.946-2.632-1.922     c-0.746-1.28-0.952-2.571-0.419-4.063c-0.824-0.225-1.559-0.637-2.135-1.207c-8.065,4.379-13.438,6.271-16.465,5.586     c-1.419-0.322-2.583-1.152-3.269-2.348c-0.697-1.213-0.612-2.723,0.213-3.851c1.455-2.001,3.195-4.378,4.942-6.762     c-2.862,1.759-5.883,3.669-8.715,5.482c-0.807,0.521-1.801,0.691-2.735,0.461c-0.939-0.225-1.746-0.819-2.231-1.662     c-1.491-2.583,0.164-4.281,4.166-8.387c0.474-0.485,0.995-1.007,1.547-1.571c-1.438,0.922-2.966,1.911-4.597,2.96     c-2.099,1.37-2.741,1.776-4.209,1.431c-0.952-0.224-1.771-0.818-2.25-1.667c-0.818-1.401-0.885-2.317,0.242-3.96     c-1.37,0.977-2.734,1.959-4.038,2.929c-0.807,0.606-1.838,0.837-2.82,0.631c-0.994-0.206-1.844-0.825-2.347-1.692     c-1.534-2.668-0.37-4.706,4.778-8.49c-1.104-2.043-0.37-4.1,1.923-6.979c-1.795,0.612-2.541,0.448-3.068,0.333     c-1.122-0.236-2.057-0.897-2.608-1.873c-0.467-0.807-0.6-1.771-0.352-2.675c0.176-0.68,0.358-1.37,0.546-2.062     c-1.51,0.569-3.269,0.03-4.196-1.377c-1.067-1.631-0.606-3.82,1.024-4.895c7.314-4.79,7.908-4.65,9.321-4.312     c0.946,0.225,1.795,0.855,2.274,1.692c0.643,1.109,0.813,1.389-0.358,5.985c3.724-2.25,8.745-5.609,13.063-8.727     c0.813-0.588,1.832-0.794,2.809-0.588c0.976,0.206,1.819,0.824,2.316,1.691c1.601,2.76-0.164,5.349-4.925,10.328     c1.231-0.825,2.341-1.577,3.215-2.171c7.198-4.889,7.483-5.082,9.26-4.664c0.952,0.212,1.801,0.837,2.293,1.692     c1.971,3.414-0.468,5.81-9.928,12.086c0.176,0.425,0.279,0.831,0.267,1.255c12.141-7.361,13.438-7.047,14.895-6.701     c1.019,0.249,1.867,0.88,2.383,1.771c0.813,1.413,0.552,3.208-0.631,4.33c-1.91,1.813-3.856,3.669-5.761,5.506     c1.122-0.34,1.613-0.225,2.122-0.103c0.94,0.23,1.819,0.885,2.305,1.722c1.171,2.008,0.564,2.856-2.353,6.901     c-1.316,1.819-3.075,4.245-4.827,6.659c-0.674,0.922-1.341,1.837-1.983,2.723c12.893-6.155,39.782-24.5,51.195-32.293     c15.586-10.643,15.586-10.643,17.599-10.188c0.965,0.212,1.819,0.843,2.311,1.691c1.201,2.092,0.928,4.27-1.71,7.259     c0.085,0.109,0.164,0.225,0.23,0.346c1.935,3.336-1.334,5.482-5.464,8.199c-0.51,0.34-1.056,0.691-1.632,1.062     c0.959,0.225,1.783,0.831,2.269,1.674c2.165,3.754-1.056,6.556-13.754,16.435l1.54,2.341c-0.085,0.055-0.267,0.193-0.539,0.376     c-10.449,7.514-12.444,7.811-14.294,7.41c-1.067-0.23-2.002-0.897-2.541-1.837c-0.243-0.431-0.419-0.837-0.521-1.237     C321.562,385.111,317.207,386.251,315.479,386.251z M351.064,370.289l-0.527,2.317L351.064,370.289z" style="fill:#2F3127;"/></g><g><path d="M356.674,259.49c-0.303,0-0.563-0.063-0.896-0.148c-0.916-0.239-1.698-0.837-2.172-1.658     c-0.588-1.025-0.631-2.28-0.097-3.342c0.661-1.328,1.347-2.705,2.001-4.048l-14.166,8.175c-1.595,0.922-3.627,0.461-4.67-1.053     c-1.043-1.519-0.752-3.583,0.68-4.745c3.529-2.875,7.21-5.961,10.686-8.951c-4.646,2.798-9.618,5.837-14.403,8.793     c-0.807,0.503-1.789,0.651-2.717,0.421c-0.928-0.23-1.723-0.831-2.195-1.655c-0.686-1.177-0.618-2.201-0.218-3.065l-8.267,4.772     c-1.686,0.977-3.851,0.4-4.827-1.292c-0.977-1.689-0.394-3.851,1.292-4.828l36.223-20.91c0.807-0.464,1.776-0.591,2.674-0.349     c0.91,0.243,1.674,0.833,2.147,1.644c0.412,0.715,0.643,1.41,0.618,2.159c8.205-4.591,9.108-4.363,10.146-4.103     c0.922,0.233,1.771,0.864,2.256,1.695c0.989,1.716,1.941,3.372-6.186,11.389c0.765,0.285,1.401,0.828,1.808,1.537     c0.794,1.361,1.055,1.816-1.456,7.165c0.534-0.315,1.062-0.63,1.589-0.943c1.674-0.998,3.845-0.452,4.846,1.225     c0.995,1.674,0.442,3.845-1.225,4.842C359.925,258.311,357.936,259.49,356.674,259.49z" style="fill:#2F3127;"/></g><g><path d="M328.65,356.535c-0.267,0-0.533-0.03-0.8-0.085c-0.952-0.224-1.765-0.83-2.256-1.68     c-1.819-3.142,1.019-5.403,5.719-9.151c1.17-0.939,2.511-1.982,3.954-3.099c-1.371,0.425-2.905-0.024-3.833-1.213     c-1.128-1.461-0.935-3.554,0.442-4.784c1.534-1.383,3.184-2.875,4.882-4.415c-1.51,0.624-3.287,0.121-4.239-1.256     c-1.073-1.546-0.745-3.669,0.746-4.814c0.825-0.637,1.662-1.292,2.499-1.94c-1.195,0.388-2.056,0.412-2.851,0.218     c-1.062-0.242-1.94-0.892-2.468-1.813c-1.45-2.498,0.024-4.1,3.954-8.356c0.314-0.346,0.648-0.71,1.012-1.104     c-0.976,0.285-1.776,0.303-2.553,0.134c-1.128-0.249-2.062-0.922-2.619-1.911c-0.765-1.31-0.85-2.353,0.127-3.99     c-3.584,1.898-4.154,1.765-5.088,1.517c-0.928-0.23-1.734-0.844-2.208-1.668c-0.824-1.432-0.934-2.777,0.261-4.73     c-0.23-0.024-0.454-0.055-0.673-0.115c-0.903-0.248-1.674-0.837-2.141-1.644c-1.37-2.371-0.516-3.231,3.565-7.386     c0.776-0.789,1.91-1.947,3.215-3.275c-3.608,2.293-7.351,4.706-10.68,6.865c-26.629,17.205-31.893,20.079-35.095,19.314     c-1.067-0.254-1.952-0.909-2.48-1.831c-0.86-1.491-0.527-3.384,0.801-4.487l0.346-0.279c-2.553,1.104-4.5,1.474-6.04,1.146     c-1.34-0.297-2.444-1.086-3.105-2.231c-0.921-1.596-0.473-3.621,1.037-4.67l2.068-1.443c-0.2-0.225-0.376-0.473-0.527-0.733     c-0.771-1.347-0.589-3.039,0.473-4.173l4.021-4.33c-8.192,4.719-8.678,4.604-9.909,4.282c-0.915-0.237-1.697-0.831-2.171-1.656     c-0.886-1.516-0.516-3.444,0.855-4.53l6.046-4.803c-1.425,0.243-2.917-0.394-3.675-1.716c-1.91-3.299,0.461-5.798,10.916-13.633     c-0.843-0.242-1.607-0.801-2.08-1.632c-1.972-3.408,0.849-6.543,10.363-13.872c-2.959,1.923-5.919,3.866-8.835,5.789     c-0.813,0.539-1.808,0.721-2.76,0.497c-0.946-0.23-1.765-0.831-2.25-1.674c-1.723-2.983,0.649-5.07,5.84-9.637     c1.687-1.485,3.778-3.271,6.246-5.342c-0.339-0.273-0.643-0.61-0.86-0.998c-0.661-1.14-0.54-1.811-0.17-3.809     c0.157-0.861,0.31-1.659,0.437-2.398c-1.704,1.353-2.699,2.01-4.306,1.704c-1.013-0.194-1.916-0.834-2.432-1.729     c-1.407-2.438-0.34-3.735,4.852-9.624l-1.28-2.374c0.546-0.3,7.574-4.382,7.574-4.382c1.505-0.873,3.427-0.516,4.519,0.843     c1.104,1.361,1.043,3.314-0.134,4.6c-0.594,0.646-1.2,1.31-1.807,1.983c0.206,0.219,0.388,0.464,0.546,0.731     c0.497,0.874,0.703,1.392,0.261,4.491c9.418-6.786,15.7-9.924,18.715-9.336c1.291,0.254,2.364,1,3.001,2.104     c0.57,0.995,0.606,2.168,0.177,3.168c17.689-10.279,20.212-9.675,21.285-9.43c1.11,0.261,2.025,0.931,2.571,1.886     c1.893,3.272-1.067,5.464-6.968,9.833c-2.687,1.989-6.082,4.412-9.813,7.05l21.553-12.447c1.662-0.958,3.778-0.422,4.779,1.207     c1.007,1.631,0.527,3.76-1.073,4.806c-12.08,7.908-24.64,16.292-35.858,23.96c0.77,0.219,1.461,0.7,1.94,1.407     c1.043,1.531,0.728,3.605-0.722,4.751l-14.445,11.486c0.352,0.212,0.679,0.491,0.952,0.818c1.104,1.371,1.03,3.342-0.158,4.634     l-10.115,10.879c2.522-1.528,5.313-3.299,8.229-5.215l19.297-13.427c1.583-1.098,3.766-0.722,4.888,0.849     c0.291,0.413,0.485,0.867,0.588,1.328c0.328-0.012,0.649,0.037,0.959,0.104c1.134,0.242,2.067,0.922,2.632,1.904     c0.861,1.485,0.521,3.384-0.801,4.481l-8.86,7.368c21.747-14.003,24.343-15.131,26.901-14.512     c1.031,0.248,1.893,0.885,2.408,1.782c1.031,1.777,1.315,2.887-2.978,7.908l0.824-0.479c1.687-0.976,3.845-0.394,4.821,1.299     c1.141,1.965,0.758,3.05-1.601,5.258c0.346-0.019,0.703,0.023,1.049,0.108c0.922,0.23,1.71,0.831,2.189,1.649     c0.771,1.334,0.909,2.256-0.091,3.845c4.221-2.819,5.7-3.365,7.404-2.989c1.037,0.23,1.929,0.885,2.456,1.795     c0.794,1.377,0.563,3.111-0.546,4.245c-2.602,2.638-5.27,5.349-7.823,7.98c6.968-4.597,7.727-4.96,9.497-4.548     c0.946,0.225,1.801,0.854,2.286,1.691c0.776,1.347,1.644,2.856-1.922,7.247c0.036,0.006,0.066,0.019,0.103,0.03     c0.934,0.23,1.777,0.855,2.256,1.687c1.037,1.807,0.655,3.068-1.152,5.075c5.562-2.826,6.738-2.547,7.551-2.353     c1.055,0.242,1.916,0.886,2.443,1.795c1.262,2.195,1.074,3.894-3.856,8.369c1.183-0.267,1.722-0.146,2.122-0.055     c1.092,0.255,1.989,0.915,2.535,1.861c0.977,1.687,0.395,3.845-1.292,4.821c-0.806,0.473-1.722,0.576-2.564,0.389     c-4.513,1.419-22.996,12.862-39.055,23.639C330.027,356.336,329.342,356.535,328.65,356.535z" style="fill:#2F3127;"/></g><g><path d="M194.049,386.415c-0.525,0-0.904-0.079-1.255-0.158c-1.204-0.267-2.195-0.982-2.787-2.007     c-0.303-0.534-0.458-1.116-0.473-1.687c-5.734,2.862-6.729,2.614-7.489,2.426c-1.001-0.248-1.829-0.86-2.335-1.74     c-1.092-1.898-0.885-3.79,1.11-6.216c-0.088-0.115-0.17-0.236-0.243-0.364c-0.846-1.461-0.534-3.323,0.752-4.438     c1.183-1.025,2.398-2.087,3.605-3.16l-27.466,15.853c-1.692,0.982-3.848,0.4-4.827-1.292c-0.476-0.818-0.661-1.534-0.561-2.243     c-5.421,2.462-7.05,2.11-8.075,1.886c-1.319-0.291-2.396-1.062-3.038-2.171c-1.837-3.185,0.364-4.961,9.673-12.159     c-0.209-0.012-0.413-0.043-0.609-0.091c-1.283-0.285-2.338-1.056-2.972-2.147c-0.455-0.788-0.573-1.691-0.392-2.522     c-3.323,1.443-4.126,1.243-4.954,1.031c-1.007-0.243-1.841-0.874-2.347-1.753c-2.013-3.48,0.512-6.459,13.511-15.919     c2.611-1.898,5.613-4.021,9.006-6.367c-0.121-0.146-0.228-0.31-0.324-0.474c-0.934-1.619-0.449-3.687,1.104-4.718l4.506-2.989     c-0.713-0.4-1.298-0.971-1.707-1.668c-0.931-1.619-0.449-3.676,1.104-4.706l22.323-14.882c-0.128-0.158-0.246-0.315-0.346-0.491     c-0.613-1.062-0.755-2.341-0.397-3.597c0.288-1.037,1.188-2.298,2.577-3.741c-0.473-1.438,0.021-3.057,1.298-3.973     c6.25-4.481,12.69-9.212,18.615-13.681c-0.143-0.019-0.282-0.049-0.421-0.085c-0.913-0.237-1.692-0.837-2.162-1.649     c-1.747-3.026,0.734-5.046,5.676-9.085c0.455-0.37,0.943-0.758,1.458-1.177c-0.164-0.176-0.306-0.375-0.428-0.594     c-1.01-1.734-0.973-3.014,1.377-5.543c-3.181,1.492-3.872,1.322-4.585,1.146c-0.931-0.23-1.792-0.873-2.268-1.704     c-0.815-1.407-0.561-3.185,0.606-4.312c2.326-2.238,4.703-4.543,7.01-6.799l-5.391,3.111c-1.58,0.909-3.593,0.473-4.648-1.016     c-1.052-1.489-0.801-3.536,0.582-4.725c2.604-2.237,5.31-4.618,7.92-6.962c-0.57,0.349-1.14,0.704-1.701,1.052     c-0.815,0.503-1.795,0.658-2.72,0.428c-0.931-0.233-1.725-0.831-2.204-1.662c-0.664-1.149-0.676-2.05-0.2-3.069l-6.623,3.824     c-1.692,0.977-3.848,0.394-4.821-1.292c-0.977-1.691-0.4-3.854,1.292-4.827l20.088-11.595c0.81-0.47,1.771-0.598,2.68-0.355     c0.904,0.243,1.677,0.834,2.144,1.646c0.455,0.789,0.646,1.534,0.509,2.438c9.451-5.588,10.243-5.391,11.489-5.082     c0.925,0.236,1.756,0.858,2.238,1.686c0.837,1.452,1.61,2.798-2.829,7.959l0.352-0.203c1.688-0.974,3.851-0.395,4.827,1.292     c1.495,2.596-0.148,4.315-4.118,8.472c-0.698,0.728-1.489,1.543-2.375,2.447c3.784-2.301,7.729-4.736,11.535-7.117     c0.813-0.506,1.798-0.664,2.729-0.431c0.928,0.23,1.725,0.831,2.201,1.662c1.747,3.026-0.919,5.339-4.948,8.848     c-0.049,0.042-0.1,0.085-0.149,0.127c1.007,0.318,1.834,0.97,2.356,1.874c0.901,1.562,0.485,3.547-0.964,4.612     c-2.117,1.556-4.26,3.15-6.392,4.739c0.473,0.304,0.871,0.716,1.155,1.207c0.637,1.104,1.243,2.152-0.521,4.676     c4.436-2.371,6.929-3.075,8.687-2.656c1.146,0.267,2.096,0.958,2.668,1.952c0.476,0.819,0.601,1.808,0.34,2.724     c-0.258,0.915-0.874,1.691-1.713,2.141c-1.219,0.667-2.444,1.334-3.678,2.02c0.588,0.521,0.994,1.243,1.131,2.05     c0.158,0.939-0.079,1.886-0.613,2.632c0.864,0.182,1.662,0.685,2.195,1.474c1.089,1.601,0.682,3.784-0.907,4.888     c-0.112,0.072-7.022,4.863-16.649,11.298c0.313,0.267,0.576,0.582,0.776,0.922c0.955,1.649,0.421,3.76-1.192,4.767     c-16.419,10.212-33.56,21.171-48.184,30.837c10.357-6.258,21.574-13.159,32.286-19.86c1.632-1.019,3.775-0.559,4.828,1.049     c1.052,1.601,0.634,3.754-0.943,4.846l-12.008,8.308c0.588,0.34,1.077,0.825,1.425,1.42c0.91,1.576,0.473,3.584-1.003,4.645     c-9.212,6.599-20.868,15.027-31.517,22.869c4.421-2.983,9.466-6.477,15.206-10.546c1.677-1.194,2.441-1.729,3.969-1.401     c0.977,0.207,1.819,0.825,2.317,1.687c1.37,2.377,0.415,3.93-3.327,7.113l8.539-4.931c0.807-0.467,1.777-0.594,2.681-0.352     c0.903,0.242,1.674,0.837,2.144,1.644c0.655,1.14,1.25,2.177-0.437,4.827c14.437-9.339,17.587-10.831,20.094-10.242     c1.049,0.254,1.922,0.903,2.453,1.818c0.376,0.649,0.549,1.268,0.558,1.838c1.046-0.655,2.086-1.31,3.12-1.965     c0.815-0.516,1.801-0.667,2.735-0.437c0.931,0.23,1.731,0.831,2.21,1.661c0.543,0.946,0.682,1.789,0.455,2.645     c0.097-0.061,0.188-0.127,0.285-0.2c1.495-1.037,3.539-0.771,4.709,0.618c1.183,1.389,1.11,3.445-0.161,4.749l-2.168,2.231     c0.485-0.34,0.964-0.667,1.44-1.007c0.813-0.563,1.828-0.764,2.79-0.552c0.967,0.213,1.798,0.831,2.295,1.68     c0.849,1.474,1.495,2.596-4.042,12.79c0.097,0.127,0.185,0.255,0.261,0.395c0.643,1.109,0.627,1.722,0.124,4.646     c1.116,1.412,1.001,3.462-0.324,4.729c-0.988,0.952-2.35,2.008-4.148,1.753c-1.074-0.151-2.107-0.85-2.65-1.795     c-0.361-0.619-0.5-1.092-0.467-1.826c-0.961-0.303-1.783-0.958-2.304-1.855c-0.631-1.092-0.631-2.438,0-3.529     c0.652-1.14,1.331-2.341,1.992-3.535c-12.174,7.835-14.209,7.386-15.41,7.119c-1.092-0.248-1.996-0.897-2.541-1.844     c-0.418-0.728-0.558-1.546-0.431-2.334C201.326,384.819,196.323,386.415,194.049,386.415z" style="fill:#2F3127;"/></g><g><path d="M169.619,277.104c-1.219,0-2.402-0.631-3.06-1.759c-0.443-0.764-0.591-1.128-0.428-3.529     c-0.382-0.285-0.707-0.649-0.949-1.067c-2.046-3.548,1.08-6.792,11.513-14.752c2.969-2.262,6.371-4.757,9.934-7.322     c-12.205,7.522-26.022,16.38-39.139,25.088c-0.816,0.534-1.813,0.722-2.76,0.491c-0.952-0.218-1.765-0.824-2.256-1.668     c-1.904-3.299,0.81-5.603,9.664-12.374c0.264-0.197,0.525-0.397,0.794-0.601c-0.749-0.287-1.383-0.827-1.789-1.531     c-1.504-2.595,0.634-4.387,1.911-5.455c0.73-0.612,1.78-1.483,3.056-2.535c1.631-1.35,4.203-3.478,7.096-5.904     c-1.049,0.743-1.996,1.419-2.796,1.992c-8.472,6.046-9.354,6.68-11.368,6.24c-0.977-0.209-1.859-0.852-2.356-1.713     c-1.795-3.111,0.873-5.203,5.722-9.005c0.534-0.418,1.113-0.867,1.731-1.343c-0.874-1.662-0.288-3.732,1.346-4.688     c0.091-0.051,0.182-0.103,0.279-0.146c1.465-0.794,15.813-9.108,25.261-14.6c1.631-0.946,3.729-0.442,4.749,1.155     c0.673,1.052,0.719,2.329,0.23,3.387c0.661,0.391,1.207,0.94,1.598,1.613c0.395,0.682,0.616,1.319,0.604,2.004     c7.368-4.179,13.539-6.826,16.604-6.192c1.431,0.297,2.595,1.116,3.281,2.307c0.443,0.761,0.57,1.628,0.412,2.438     c11.929-6.401,13.915-5.94,15.397-5.591c1.17,0.273,2.129,0.974,2.702,1.965c1.886,3.275-1.07,5.464-6.956,9.831     c-3.909,2.896-9.345,6.728-15.1,10.786c-9.173,6.458-23.203,16.346-29.694,21.847l3.923-2.262c1.686-0.989,3.848-0.4,4.824,1.291     c0.977,1.681,0.397,3.845-1.292,4.821l-10.925,6.307C170.826,276.953,170.219,277.104,169.619,277.104z" style="fill:#2F3127;"/></g><g><path d="M119.433,120.167c-0.352,0-0.667-0.042-0.967-0.109c-1.049-0.255-1.916-0.9-2.45-1.816     c-0.87-1.516-0.506-3.438,0.858-4.53l3.824-3.047c-1.092,0.233-2.035,0.261-2.863,0.079c-1.34-0.288-2.444-1.08-3.104-2.229     c-0.928-1.604-0.455-3.653,1.079-4.69l2.514-1.701c-0.194-0.225-0.373-0.47-0.521-0.73c-0.87-1.498-0.519-3.412,0.828-4.506     l7.304-5.958c-14.272,8.281-14.676,8.178-16.195,7.778c-0.916-0.24-1.707-0.843-2.18-1.662c-0.91-1.573-0.479-3.575,0.998-4.636     l7.486-5.37l-2.426,1.404c-0.81,0.47-1.78,0.591-2.683,0.355c-0.904-0.246-1.677-0.84-2.141-1.65     c-1.913-3.308,1.046-5.876,8.527-11.874c0.167-0.136,0.336-0.273,0.509-0.412c-0.973-0.185-1.865-0.776-2.401-1.704     c-1.989-3.445,0.94-6.568,10.749-14.191c0.218-0.173,0.443-0.349,0.67-0.521c-4.124,2.65-8.281,5.358-12.338,8.042     c-0.81,0.534-1.81,0.715-2.756,0.491c-0.949-0.224-1.765-0.831-2.25-1.671c-1.78-3.083,0.828-5.3,6.549-10.148     c1.158-0.979,2.483-2.083,3.975-3.305c-0.564-0.31-1.037-0.767-1.367-1.331c-1.062-1.844-0.397-2.923,1.204-5.534     c0.604-0.979,1.165-1.904,1.686-2.766c-0.849,0.625-1.613,1.189-2.198,1.619c-4.336,3.214-5.119,3.796-6.938,3.415     c-0.988-0.203-1.868-0.843-2.371-1.713c-1.271-2.201-0.682-3.605,3.502-7.465c-0.061-0.091-0.127-0.191-0.188-0.3     c-0.985-1.683-0.418-3.845,1.265-4.833c0.073-0.04,0.146-0.079,0.218-0.115c0.985-0.543,9.648-5.561,14.991-8.663     c1.592-0.921,3.617-0.473,4.669,1.031c1.052,1.507,0.773,3.563-0.637,4.743c-0.54,0.446-1.079,0.897-1.625,1.355     c0.303,0.282,0.567,0.612,0.782,0.985c0.615,1.064,0.858,1.862,0.003,3.927c8.029-5.403,15.488-9.488,18.906-8.806     c1.322,0.264,2.404,1.025,3.056,2.144c0.606,1.055,0.616,2.307,0.104,3.335c12.386-6.819,14.427-6.331,15.354-6.116     c1.104,0.264,2.014,0.928,2.56,1.877c1.853,3.211-0.94,5.325-6.51,9.536c-2.489,1.88-5.649,4.185-9.118,6.683l5.558-3.205     c1.638-0.946,3.727-0.437,4.746,1.152c1.016,1.592,0.604,3.702-0.94,4.791c-4.882,3.45-9.857,7.001-14.694,10.5l22.478-12.978     c1.631-0.94,3.714-0.437,4.733,1.143c1.022,1.583,0.619,3.687-0.906,4.788l-13.806,9.897c0.931,0.139,1.801,0.646,2.377,1.474     c1.062,1.513,0.771,3.59-0.664,4.76l-18.16,14.8l21.716-14.691c1.595-1.077,3.76-0.679,4.867,0.895     c1.106,1.577,0.749,3.748-0.804,4.885c-1.437,1.055-2.978,2.171-4.579,3.323c0.106,0.143,0.207,0.288,0.294,0.446     c0.876,1.51,0.512,3.438-0.853,4.527l-7.237,5.773c9.16-5.655,10.855-6.083,12.698-5.631c1.019,0.246,1.865,0.874,2.381,1.768     c1.649,2.853-0.091,5.264-7.951,12.308c0.719,0.282,1.349,0.8,1.765,1.519c1.474,2.547,0.3,3.626-4.063,7.647     c-0.588,0.543-1.361,1.255-2.238,2.071c0.443,0.279,0.828,0.661,1.119,1.134c1.019,1.662,0.503,3.836-1.158,4.86     c-11.947,7.347-12.205,7.287-13.866,6.868c-0.922-0.236-1.725-0.843-2.207-1.671c-0.676-1.173-0.855-2.277-0.209-3.769     l-3.663,2.117c-0.813,0.47-1.78,0.601-2.684,0.354c-0.907-0.242-1.68-0.84-2.144-1.649c-1.492-2.602,0.583-4.351,2.098-5.627     c0.855-0.716,2.08-1.735,3.557-2.957c0.585-0.485,1.289-1.067,2.08-1.726C127.787,117.123,122.42,120.167,119.433,120.167z" style="fill:#2F3127;"/></g><g><path d="M346.092,120.141c-0.346,0-0.661-0.04-0.958-0.115c-1.056-0.252-1.923-0.898-2.456-1.813     c-0.867-1.51-0.503-3.438,0.861-4.527l3.851-3.071c-1.085,0.23-2.025,0.255-2.851,0.076c-1.334-0.288-2.443-1.08-3.104-2.226     c-0.922-1.607-0.455-3.657,1.086-4.694l2.522-1.707c-0.194-0.225-0.37-0.47-0.527-0.731c-0.867-1.5-0.51-3.411,0.83-4.505     l7.314-5.958c-14.258,8.269-14.664,8.16-16.187,7.765c-0.909-0.239-1.698-0.843-2.177-1.661c-0.903-1.574-0.473-3.578,1.001-4.64     l7.483-5.364l-2.426,1.401c-0.813,0.47-1.771,0.591-2.681,0.354c-0.903-0.249-1.68-0.84-2.141-1.649     c-1.91-3.308,1.049-5.876,8.521-11.874c0.17-0.136,0.346-0.272,0.516-0.412c-0.977-0.185-1.862-0.776-2.396-1.704     c-1.995-3.448,0.928-6.568,10.733-14.188c0.219-0.17,0.449-0.343,0.667-0.516c-4.117,2.644-8.271,5.352-12.322,8.032     c-0.813,0.534-1.802,0.716-2.754,0.488c-0.958-0.225-1.765-0.828-2.256-1.674c-1.776-3.078,0.831-5.291,6.531-10.131     c1.159-0.985,2.493-2.092,3.991-3.323c-0.576-0.312-1.062-0.785-1.383-1.367c-1.02-1.819-0.383-2.878,1.176-5.434     c0.606-0.992,1.165-1.923,1.68-2.79c-0.836,0.616-1.601,1.177-2.177,1.604c-4.215,3.123-5.088,3.772-6.901,3.396     c-0.988-0.204-1.874-0.843-2.371-1.716c-1.255-2.162-0.709-3.557,3.306-7.286c-0.073-0.104-0.146-0.209-0.213-0.325     c-0.994-1.683-0.437-3.848,1.237-4.842c0.079-0.046,0.164-0.088,0.236-0.13c0.995-0.546,9.697-5.588,15.07-8.706     c1.589-0.922,3.614-0.473,4.663,1.031c1.056,1.504,0.776,3.563-0.63,4.736c-0.534,0.446-1.074,0.898-1.613,1.35     c0.309,0.282,0.569,0.612,0.782,0.985c0.618,1.064,0.86,1.862,0.012,3.942c8.018-5.406,15.495-9.506,18.903-8.821     c1.321,0.264,2.407,1.025,3.05,2.144c0.606,1.055,0.618,2.307,0.109,3.335c12.45-6.861,14.506-6.376,15.434-6.161     c1.098,0.261,2.014,0.928,2.56,1.877c1.855,3.211-0.935,5.321-6.508,9.533c-2.48,1.88-5.64,4.178-9.103,6.677l5.586-3.226     c1.637-0.946,3.729-0.434,4.742,1.158c1.019,1.589,0.606,3.699-0.94,4.788c-4.882,3.448-9.854,7.001-14.693,10.5l22.486-12.98     c1.631-0.943,3.711-0.44,4.736,1.143c1.024,1.583,0.625,3.687-0.903,4.785l-13.809,9.9c0.934,0.137,1.801,0.646,2.377,1.471     c1.062,1.516,0.771,3.593-0.661,4.761l-18.175,14.809l21.729-14.697c1.589-1.077,3.76-0.68,4.87,0.895     c1.104,1.573,0.752,3.748-0.813,4.885c-1.438,1.052-2.966,2.168-4.573,3.323c0.109,0.143,0.206,0.288,0.298,0.445     c0.873,1.51,0.509,3.436-0.861,4.524l-7.241,5.779c9.176-5.664,10.867-6.083,12.705-5.637c1.019,0.246,1.868,0.873,2.383,1.771     c1.644,2.854-0.091,5.267-7.95,12.305c0.716,0.279,1.347,0.797,1.765,1.516c1.479,2.55,0.291,3.636-4.1,7.668     c-0.576,0.531-1.334,1.231-2.188,2.025c0.442,0.279,0.836,0.667,1.14,1.146c1.019,1.661,0.497,3.838-1.164,4.857     c-12.104,7.453-12.365,7.383-14.027,6.965c-0.922-0.24-1.729-0.846-2.207-1.674c-0.673-1.173-0.855-2.277-0.212-3.76l-3.663,2.11     c-1.687,0.977-3.845,0.4-4.821-1.292c-1.498-2.604,0.582-4.354,2.098-5.634c0.861-0.718,2.093-1.737,3.566-2.965     c0.588-0.479,1.285-1.061,2.08-1.713C354.449,117.099,349.088,120.141,346.092,120.141z" style="fill:#2F3127;"/></g><g><path d="M399.641,124.625c-1.152,0-2.28-0.561-2.96-1.592c-1.043-1.592-0.637-3.727,0.922-4.824     l16.823-11.865c-0.443-1.234-0.085-2.911,3.45-7.78c-6.883,4.299-7.823,4.563-9.479,4.151c-0.935-0.23-1.795-0.867-2.28-1.701     c-0.54-0.94-0.625-2.074-0.225-3.078l4.082-10.185c-0.438-1.519,0.193-3.196,1.625-4.024c0.103-0.058,0.212-0.109,0.315-0.157     c0.6-0.507,1.546-1.064,2.838-0.91c1.109,0.127,2.141,0.8,2.692,1.768c0.546,0.94,0.631,2.074,0.225,3.081l-1.51,3.787     c1.006-0.64,2.02-1.276,2.94-1.864c11.687-7.417,12.796-7.978,14.81-7.487c0.934,0.23,1.795,0.874,2.28,1.707     c0.746,1.301,0.595,2.926-0.382,4.063c-1.305,1.528-2.656,3.133-3.979,4.728c3.45-2.39,5.409-3.193,7.356-2.799     c1.2,0.236,2.195,0.946,2.789,1.986c0.151,0.251,0.255,0.509,0.334,0.77c1.31-0.446,1.752-0.328,2.231-0.209     c0.922,0.237,1.759,0.867,2.237,1.689c0.971,1.692,0.389,3.854-1.304,4.828c-0.437,0.258-0.922,0.406-1.395,0.452     c-3.796,1.592-24.451,13.845-42.596,24.949C400.901,124.461,400.265,124.625,399.641,124.625z M440.653,97.417     c0.261,0.449,0.589,0.794,0.946,1.059C441.224,98.196,440.902,97.845,440.653,97.417z" style="fill:#E97C7D;"/></g><g><path d="M176.086,121.472c-0.246,0-0.491-0.021-0.731-0.073c-0.982-0.206-1.828-0.821-2.329-1.691     c-2.389-4.133,3.047-7.678,8.308-11.113c0.725-0.473,1.492-0.961,2.296-1.468c-0.907-2.422,0.67-4.951,4.36-8.742     c-0.194-0.021-0.358-0.058-0.509-0.088c-1.11-0.236-2.022-0.897-2.58-1.862c-0.528-0.913-0.619-2.013-0.252-2.999     c0.31-0.831,0.628-1.683,0.937-2.529c-1.143-0.009-2.265-0.573-2.935-1.604c-1.064-1.634-0.604-3.82,1.031-4.888     c6.637-4.318,7.362-4.409,8.878-4.045c0.943,0.228,1.777,0.846,2.262,1.689c0.694,1.201,0.895,1.552-0.658,5.979     c3.129-1.965,6.917-4.527,10.243-6.922c0.807-0.582,1.825-0.794,2.808-0.588c0.974,0.212,1.816,0.825,2.313,1.689     c1.953,3.384-1.037,6.507-8.475,13.469c5.091-3.263,10.406-6.874,13.669-9.096c10.176-6.922,10.57-7.199,12.501-6.753     c0.958,0.218,1.811,0.846,2.305,1.695c1.477,2.563-0.024,4.913-2.638,7.15c0.934,1.68,0.349,3.805-1.325,4.77     c-1.137,0.658-2.489,0.609-3.55-0.009c-1.231,0.23-3.32,1.149-6.016,2.574c-3.923,2.408-8.39,5.034-12.777,7.608     c-7.817,4.991-16.859,11.192-25.055,17.171C177.557,121.241,176.829,121.472,176.086,121.472z" style="fill:#E97C7D;"/></g><g><path d="M453.978,443.832c-0.261,0-0.516-0.03-0.771-0.085c-0.965-0.212-1.795-0.818-2.286-1.674     c-1.177-2.013-0.176-3.517,1.043-4.669v-0.007c0,0,0.006-0.006,0.012-0.006c0.34-0.327,0.698-0.624,1.031-0.903     c0.831-0.691,2.014-1.674,3.444-2.851c0.922-0.764,1.953-1.606,3.045-2.511c-0.255-0.206-0.491-0.461-0.686-0.746     c-0.085-0.121-0.158-0.242-0.219-0.363c-1.88,0.728-3.057,0.813-4.057,0.582c-1.116-0.255-2.025-0.934-2.59-1.892     c-1.049-1.813-0.722-3.523,1.347-5.919c-0.71-0.328-1.347-0.88-1.723-1.528c-0.794-1.377-0.569-3.105,0.54-4.233l6.798-6.938     c-0.431-0.303-0.794-0.686-1.055-1.146c-0.631-1.091-1.268-2.201,0.37-4.809c-0.564,0.158-0.935,0.072-1.541-0.072     c-0.928-0.225-1.746-0.831-2.231-1.662c-0.892-1.54-0.497-3.512,0.928-4.585c0.88-0.679,1.783-1.376,2.698-2.08     c-0.097-0.115-0.169-0.236-0.242-0.357c-0.431-0.746-0.631-1.432-0.576-2.146c-0.867-0.255-1.613-0.831-2.067-1.626     c-0.177-0.303-0.315-0.606-0.413-0.897c-3.147,2.038-3.396,1.978-4.676,1.68c-0.945-0.224-1.771-0.83-2.256-1.68     c-0.939-1.631-0.612-3.08,0.491-4.566c-0.454-0.248-0.854-0.594-1.17-1.03c-1.079-1.498-0.831-3.585,0.594-4.779     c2.178-1.825,4.621-3.881,7.162-6.028c-0.357,0.03-0.715,0.007-1.073-0.066c-0.964-0.218-1.795-0.831-2.286-1.686     c-1.613-2.784,0.534-4.755,3.93-7.599c-0.049-0.067-0.097-0.146-0.14-0.213c-0.83-1.449-0.539-3.28,0.697-4.402     c1.881-1.68,3.833-3.475,5.731-5.252c-0.867-0.097-1.71-0.516-2.317-1.23c-1.2-1.413-1.097-3.523,0.237-4.821     c0.928-0.892,1.874-1.813,2.808-2.747c-7.52,4.232-8.836,3.923-9.818,3.693c-1.037-0.243-1.892-0.874-2.414-1.777     c-0.934-1.613-0.454-3.675,1.092-4.706c2.414-1.613,4.919-3.348,7.368-5.076c-0.218-0.23-0.406-0.491-0.569-0.776     c-0.783-1.357-1.596-2.753,2.498-8.423c-2.177,1.449-4.67,3.147-7.525,5.143c-0.315,0.212-0.601,0.412-0.867,0.582     c-0.037,0.03-0.073,0.055-0.104,0.079l-0.012-0.013c-0.935,0.595-1.68,0.855-2.832,0.613c-1.358-0.304-2.408-1.371-2.705-2.735     c-0.285-1.353,0.255-2.76,1.377-3.572c5.937-4.33,12.171-9.09,17.726-13.535c-0.382,0.261-0.764,0.521-1.146,0.782     c-0.807,0.552-1.813,0.752-2.771,0.54c-0.971-0.219-1.795-0.831-2.287-1.687c-0.6-1.037-0.775-2.067-0.394-3.305     c-5.464,3.505-6.805,3.875-8.479,3.493c-1.007-0.243-1.886-0.88-2.396-1.771c-0.922-1.595-0.461-3.632,1.062-4.676     c1.05-0.715,2.099-1.449,3.153-2.177c-0.4-0.31-0.739-0.691-0.988-1.146c-0.958-1.644-1.746-3.021,3.912-8.83     c-0.668-0.315-1.262-0.837-1.619-1.468c-0.443-0.758-0.613-1.462-0.553-2.141c-0.764,0.473-1.534,0.934-2.298,1.395     c-0.813,0.491-1.789,0.637-2.705,0.4c-0.922-0.23-1.71-0.831-2.183-1.655c-1.517-2.62-0.164-3.888,4.882-8.605     c1.716-1.607,3.936-3.65,6.646-6.113c-0.334-0.285-0.625-0.631-0.85-1.019c-0.2-0.34-0.327-0.71-0.406-1.079     c-0.849,0.17-1.413,0.091-1.971-0.03c-1.062-0.255-1.946-0.904-2.475-1.825c-0.885-1.535-0.685-2.814,0.321-4.173     c-0.473-0.304-0.891-0.716-1.188-1.237c-1.576-2.734-0.363-4.954,5.622-10c-0.334-0.185-0.648-0.431-0.916-0.73     c-1.194-1.325-1.207-3.333-0.042-4.679l4.827-5.534c-0.958-0.115-1.85-0.618-2.438-1.449c-1.056-1.477-0.825-3.514,0.545-4.715     c0.376-0.328,0.752-0.658,1.128-0.989c-0.437,0.061-0.892,0.042-1.328-0.061c-0.945-0.227-1.759-0.831-2.237-1.674     c-1.079-1.877-0.74-3.001,1.134-4.718v-0.003c0-0.003,0.013-0.009,0.019-0.012c0.873-0.807,2.098-1.741,3.669-2.944     c0.576-0.452,1.152-0.889,1.716-1.322c-0.182-0.024-0.327-0.058-0.467-0.091c-1.043-0.243-1.91-0.876-2.438-1.786     c-0.758-1.313-1.534-2.65,2.02-7.602c-5.719,3.287-6.938,3.345-8.333,3.005c-1.007-0.246-1.844-0.867-2.353-1.752     c-1.747-3.026,0.661-5.13,5.979-9.676c-0.649-0.336-1.177-0.846-1.547-1.486c-0.824-1.419-0.563-3.211,0.631-4.336l6.986-6.601     c-3.245,1.953-6.429,3.887-9.297,5.637c-1.559,0.955-3.597,0.558-4.682-0.918c-1.086-1.474-0.867-3.533,0.51-4.746     c2.413-2.123,4.875-4.303,7.301-6.458c0,0.003-0.006,0.006-0.012,0.006c-0.807,0.598-1.831,0.819-2.813,0.613     c-0.989-0.207-1.832-0.822-2.335-1.692c-0.583-1.016-1.177-2.041-0.03-4.115c-0.176-0.021-0.322-0.055-0.443-0.082     c-1.164-0.254-2.11-0.94-2.687-1.932c-1.516-2.629,0.23-4.284,3.729-7.535c-2.358,1.346-3.941,2.216-5.051,2.769l-0.109,0.091     l-0.019-0.024c-1.989,0.977-2.365,0.876-3.093,0.679c-1.292-0.339-2.28-1.379-2.553-2.687c-0.273-1.304,0.206-2.653,1.255-3.484     l3.099-2.483c-0.103-0.012-0.199-0.03-0.303-0.052c-0.958-0.215-1.801-0.825-2.292-1.683c-0.644-1.119-0.801-2.205-0.474-3.314     c-1.504,1.001-3.002,1.999-4.481,2.996c-0.813,0.546-1.808,0.733-2.766,0.516c-0.952-0.225-1.776-0.831-2.268-1.677     c-1.395-2.417-0.801-4.455,6.089-10.592c-4.105,2.526-8.611,5.264-13.542,8.232c-3.754,2.262-7.362,4.436-9.491,5.771     c-0.739,0.521-1.474,1.04-2.195,1.559c-0.818,0.579-1.831,0.782-2.802,0.573c-0.976-0.209-1.813-0.822-2.304-1.683     c-0.85-1.458-0.729-2.59,0.012-3.608l-3.954,2.286c-0.813,0.467-1.776,0.594-2.681,0.352c-0.903-0.243-1.68-0.837-2.146-1.65     c-0.879-1.519-0.709-2.68,0.146-3.75c-4.032,2.444-7.896,4.797-11.492,6.992c-1.644,1.016-3.814,0.5-4.845-1.152     c-0.697-1.131-0.68-2.508-0.067-3.593c-0.321-0.261-0.594-0.579-0.8-0.946c-0.255-0.446-0.431-0.879-0.528-1.313     c-16.992,9.057-20.588,8.272-22.498,7.847c-2.014-0.439-3.057-1.61-3.585-2.52c-0.145-0.261-0.267-0.507-0.363-0.752     c-0.728,0.018-1.377-0.04-1.965-0.17c-2.207-0.491-3.342-1.78-3.924-2.777c-0.467-0.813-0.594-1.783-0.352-2.69     c0.024-0.066,0.036-0.13,0.061-0.194c-9.036,4.121-11.171,3.624-12.565,3.299c-1.347-0.309-2.444-1.098-3.081-2.213     c-0.127-0.206-0.218-0.418-0.297-0.634c-20.066,11.786-23.366,11.055-25.307,10.619c-1.353-0.3-2.456-1.088-3.104-2.21     c-0.23-0.406-0.376-0.843-0.443-1.279c-5.397,2.568-6.452,2.313-7.435,2.068c-1.031-0.255-1.886-0.892-2.407-1.792     c-0.468-0.816-0.928-2.156-0.443-3.918c0.219-0.806,0.674-1.673,1.358-2.598c-0.012-0.024-0.023-0.045-0.036-0.067     c-0.939-1.631-0.442-3.711,1.134-4.73c4.003-2.595,8.06-5.282,12.044-7.965l-36.283,20.943c-0.807,0.47-1.776,0.6-2.674,0.355     c-0.91-0.243-1.674-0.834-2.147-1.646c-0.23-0.403-0.382-0.789-0.461-1.155c-4.851,1.74-6.595,1.364-7.613,1.143     c-1.567-0.343-2.841-1.237-3.587-2.529c-0.619-1.074-0.804-1.989-0.358-3.042c-3.96,1.738-6.871,2.377-8.917,1.914     c-1.471-0.331-2.678-1.195-3.394-2.432c-0.23-0.397-0.373-0.819-0.437-1.246c-18.436,10.318-20.191,9.888-21.686,9.512     c-1.034-0.258-1.889-0.892-2.408-1.792c-0.937-1.625-1.019-3.111,0.798-5.395c-0.667,0.045-1.247,0.009-1.744-0.112     c-0.373-0.088-0.725-0.215-1.055-0.376c-13.478,6.492-16.689,5.779-18.523,5.367c-2.068-0.461-3.139-1.662-3.672-2.586     c-0.455-0.783-0.573-1.671-0.4-2.493c-1.292,0.519-1.71,0.403-2.353,0.233c-0.461-0.121-0.889-0.333-1.258-0.618     c-9.97,5.903-14.909,7.786-17.657,7.153c-1.249-0.288-2.277-1.031-2.886-2.092c-0.47-0.81-0.598-1.777-0.355-2.681     c0.246-0.906,0.837-1.68,1.649-2.144c7.887-4.542,15.871-9.194,23.791-13.866c2.684-2.438,6.656-5.579,12.574-9.661     c-17.01,9.952-34.094,19.976-49.015,28.766c-0.813,0.477-1.786,0.613-2.692,0.373c-0.91-0.239-1.692-0.833-2.162-1.649     c-0.603-1.049-0.691-2.047-0.403-3.008c-1.407,1.013-2.186,1.577-2.238,1.613c-0.807,0.588-1.828,0.803-2.805,0.594     c-0.982-0.207-1.825-0.822-2.322-1.686c-0.292-0.5-0.498-0.985-0.601-1.486c-14.57,7.456-16.735,6.926-18.199,6.568     c-1.158-0.285-2.104-0.979-2.668-1.962c-0.958-1.652-0.424-3.766,1.198-4.77c14.239-8.803,31.092-19.327,47.896-29.952     c-31.641,18.754-61.805,35.358-62.117,35.531c-1.698,0.934-3.83,0.324-4.782-1.361c-0.952-1.689-0.37-3.827,1.313-4.791     l77.217-44.585c22.056-13.451,40.149-25.307,49.916-33.081c-25.901,13.748-89.61,52.132-131.3,77.818     c-0.816,0.5-1.795,0.652-2.717,0.416c-0.928-0.23-1.716-0.831-2.195-1.656c-0.679-1.17-0.694-2.15-0.297-3.011l-8.79,5.07     c-1.692,0.979-3.848,0.397-4.824-1.292c-0.974-1.692-0.397-3.848,1.295-4.824l63.396-36.602c0.813-0.47,1.774-0.597,2.678-0.354     c0.91,0.242,1.683,0.833,2.146,1.646c0.228,0.391,0.403,0.782,0.516,1.188c4.876-2.938,9.857-5.928,14.849-8.909     c71.748-42.838,74.677-42.105,77.021-41.507c1.019,0.258,1.865,0.888,2.377,1.78c0.491,0.855,0.967,2.268,0.437,4.166     c-0.173,0.619-0.391,1.401-1.131,2.559l9.506-5.485c0.813-0.47,1.777-0.594,2.681-0.354c0.907,0.243,1.683,0.834,2.144,1.646     c1.959,3.393-1.697,6.201-5.934,9.454c-1.677,1.283-3.772,2.823-6.277,4.594c6.496-3.757,11.957-6.707,16.553-9.029     c5.003-3.154,9.812-6.204,14.372-9.112c0.818-0.516,1.801-0.679,2.741-0.449s1.734,0.831,2.22,1.665     c0.024,0.04,0.049,0.082,0.061,0.118c3.402-0.712,5.009-0.373,6.106-0.136c2.554,0.542,3.863,1.995,4.519,3.12     c0.484,0.84,0.582,1.792,0.352,2.662c1.353-0.516,1.801-0.397,2.456-0.228c0.903,0.24,1.704,0.846,2.171,1.662     c0.079,0.13,0.151,0.267,0.212,0.4c12.305-6.968,20.661-10.355,24.876-9.378c2.044,0.47,3.117,1.68,3.646,2.61     c0.491,0.846,0.606,1.853,0.321,2.787c-0.273,0.937-0.935,1.708-1.808,2.144c-0.03,0.015-0.346,0.17-0.903,0.452     c0.267,0.243,0.497,0.531,0.686,0.852c0.467,0.807,0.576,1.729,0.376,2.574c1.431-0.403,3.02,0.14,3.887,1.44     c1.073,1.598,0.667,3.76-0.909,4.857c-0.115,0.082-4.445,3.102-11.486,7.899c0.431,0.303,0.801,0.701,1.073,1.17     c0.958,1.662,0.413,3.784-1.225,4.782c-24.197,14.782-49.765,30.971-68.461,43.479c21.48-12.559,49.71-29.861,70.201-42.684     c1.638-1.022,3.79-0.549,4.833,1.067c0.358,0.543,0.54,1.146,0.57,1.75c5.246-3.023,7.95-3.854,9.861-3.423     c1.176,0.267,2.146,0.97,2.729,1.983c0.928,1.601,0.461,3.648-1.067,4.685c-20.043,13.611-49.019,33.615-65.416,45.552     c10.873-5.734,30.327-17.635,64.889-42.248c2.808-1.998,3.238-2.304,4.784-1.961c0.965,0.215,1.795,0.828,2.293,1.683     c1.31,2.265,0.667,3.896-3.408,7.162l2.347-1.355c1.692-0.976,3.851-0.4,4.827,1.292c0.643,1.104,0.734,2.217,0.4,3.348     c12.184-7.541,16.004-9.06,18.515-8.459c1.098,0.261,2.007,0.931,2.553,1.883c0.34,0.582,0.51,1.228,0.497,1.889     c1.062-0.67,2.117-1.334,3.172-2.001c0.807-0.515,1.795-0.673,2.729-0.446c0.939,0.23,1.74,0.831,2.213,1.665     c0.595,1.024,0.765,1.943,0.431,2.917c0.818-0.567,1.632-1.131,2.438-1.698c1.577-1.098,3.748-0.737,4.876,0.819     c1.134,1.555,0.807,3.729-0.722,4.894l-29.605,22.486c23.014-12.538,62.104-37.156,98.097-61.347     c0.807-0.545,1.813-0.728,2.766-0.509c0.958,0.221,1.771,0.828,2.262,1.674c0.474,0.818,0.934,2.177,0.442,3.99     c-0.218,0.785-0.509,1.874-2.073,3.796c1.831-1.022,2.322-0.913,3.208-0.716c0.964,0.215,1.813,0.843,2.311,1.695     c0.576,1.003,0.83,1.943,0.497,3.032c0.594-0.194,1.231-0.224,1.844-0.088c0.97,0.209,1.801,0.822,2.304,1.683     c1.347,2.326,0.765,4.803-2.692,8.345c1.88,0.515,2.899,1.667,3.421,2.58c0.023,0.027,0.036,0.058,0.055,0.088     c3.845-1.789,4.597-1.595,5.445-1.377c0.922,0.233,1.801,0.889,2.274,1.713c0.934,1.613,1.152,3.278-0.606,5.764     c0.509,0.309,0.939,0.74,1.237,1.261c1.212,2.104,1.279,4.218-2.565,8.09c0.206,0.233,0.382,0.482,0.546,0.752     c1.546,2.696-0.819,4.515-1.819,5.292c-0.437,0.336-1.013,0.779-1.723,1.313c5.318-2.504,6.616-2.201,7.344-2.034     c1.116,0.254,2.032,0.925,2.584,1.883c1.115,1.94,0.77,3.766-0.946,5.825c0.485,0.333,0.886,0.77,1.188,1.283     c0.867,1.513,0.504,3.436-0.855,4.527l-4.778,3.821c0.897,0.249,1.655,0.837,2.116,1.634c1.626,2.82-0.357,4.685-5.173,9.197     c-0.176,0.164-0.357,0.333-0.539,0.506c2.886-1.932,5.791-3.927,8.557-5.874c1.595-1.122,3.802-0.74,4.924,0.855     c1.122,1.592,0.74,3.796-0.854,4.918c-1.365,0.97-2.76,1.965-4.154,2.972c1.055,0.309,1.916,0.976,2.456,1.907     c1.037,1.801,1.498,2.595-4.36,8.29c4.937-2.617,5.634-2.444,6.531-2.214c0.922,0.233,1.74,0.852,2.22,1.677     c0.824,1.419,0.563,3.211-0.631,4.336l-6.628,6.252c0.552-0.148,1.128-0.164,1.697-0.036c0.965,0.212,1.795,0.825,2.287,1.68     c1.619,2.805-0.479,4.582-4.3,7.805c-0.122,0.109-0.255,0.215-0.382,0.327c0.084,0.018,0.176,0.042,0.272,0.063     c0.939,0.23,1.746,0.834,2.226,1.671c0.807,1.389,0.57,3.142-0.564,4.272c-2.91,2.896-5.979,6.073-8.732,9.045     c2.711-1.737,5.555-3.608,8.205-5.4c0.807-0.552,1.813-0.74,2.771-0.519c0.958,0.219,1.777,0.825,2.274,1.674     c1.122,1.956,1.007,3.912-2.032,7.423c0.716,0.318,1.359,0.876,1.734,1.531c1.535,2.647-0.169,4.233-4.257,8.06     c-1.425,1.334-3.263,3.017-5.494,5.021c0,0,0,0.003,0.012,0.003c1.092,1.331,1.067,3.266-0.066,4.563l-1.443,1.655     c4.003-1.962,5.112-1.707,5.9-1.54c1.092,0.249,1.989,0.9,2.541,1.85c1.025,1.773,0.825,3.241-1.134,5.431l0.843-0.488     c1.632-0.946,3.724-0.434,4.736,1.158c1.025,1.586,0.612,3.699-0.934,4.785c-1.898,1.346-3.833,2.723-5.755,4.096     c0.224,0.218,0.424,0.47,0.576,0.746c1.576,2.727-0.389,4.506-3.699,7.405c0.084,0.103,0.163,0.218,0.224,0.333     c0.837,1.456,0.54,3.293-0.716,4.409c-1.036,0.922-2.092,1.861-3.141,2.802c11.262-6.471,12.05-6.271,13.202-5.968     c0.922,0.23,1.729,0.843,2.207,1.668c1.874,3.25-1.279,5.652-6.046,9.278c-0.861,0.655-1.801,1.358-2.802,2.093     c0.036,0.048,0.066,0.097,0.097,0.145c0.867,1.511,0.516,3.415-0.843,4.513c-2.39,1.935-4.863,3.972-7.277,6.003     c3.015-1.994,6.083-4.074,8.97-6.101c0.818-0.569,1.825-0.758,2.795-0.552c0.971,0.213,1.802,0.831,2.293,1.687     c1.644,2.844-0.54,5.063-4.264,8.071c0.091,0.115,0.176,0.249,0.255,0.389c0.655,1.127,0.612,2.492-0.024,3.565     c1.371-0.395,1.965-0.255,2.432-0.151c1.086,0.242,1.972,0.891,2.518,1.825c1.109,1.94,2.644,4.597-11.947,17.138     c0.206,0.225,0.395,0.467,0.558,0.74c0.776,1.352,0.576,3.05-0.485,4.184c-1.206,1.28-2.449,2.633-3.662,3.997     c1.946-1.347,3.117-1.777,4.536-1.492c1.055,0.2,1.971,0.855,2.511,1.777c0.357,0.637,0.576,1.261,0.606,1.916     c0.388-0.042,0.788-0.019,1.183,0.073c0.951,0.224,1.771,0.824,2.256,1.667c1.03,1.789,1.704,2.954-5.477,10.795     c0.734,0.327,1.347,0.879,1.759,1.589c0.825,1.432,1.492,2.583-2.02,6.883c1.134,0.291,2.074,0.995,2.645,1.995     c0.254,0.431,0.399,0.897,0.454,1.364c0.389,0,0.674,0.055,0.897,0.104c1.116,0.255,2.038,0.916,2.59,1.874     c1.425,2.48,0.4,3.724-4.196,7.823c1.807-0.74,2.328-0.606,2.929-0.455c0.922,0.23,1.765,0.861,2.238,1.686     c0.915,1.589,0.461,3.621-1.044,4.67c-1.455,1.007-2.916,2.025-4.384,3.057c0.431,0.315,0.8,0.715,1.067,1.194     c1.729,2.989-1.141,5.173-3.227,6.768c-0.686,0.521-1.479,1.104-2.347,1.729c0.831,1.498,0.752,2.517-0.479,4.003     c0.315,0.272,0.595,0.594,0.801,0.964c0.018,0.024,0.024,0.049,0.036,0.061c4.694-2.583,5.834-2.559,7.083-2.25     c1.025,0.243,1.862,0.874,2.384,1.771c0.879,1.521,0.503,3.45-0.873,4.536c-3.354,2.649-6.901,5.561-10.14,8.32     c0.382,0.224,0.728,0.516,1.013,0.873c1.073,1.4,0.958,3.378-0.273,4.639l-2.983,3.057c3.924-2.432,8.054-5.033,12.008-7.58     c0.813-0.51,1.795-0.68,2.734-0.449c0.94,0.219,1.747,0.819,2.232,1.662c1.606,2.771-0.861,4.591-2.195,5.566     c-0.795,0.589-1.953,1.42-3.348,2.438c-0.019,0.006-0.024,0.012-0.03,0.024c0.879,0.242,1.649,0.837,2.11,1.644     c0.824,1.419,0.545,3.214-0.637,4.329c0.224,0.194,0.424,0.413,0.6,0.661c1.043,1.517,0.752,3.578-0.667,4.743     c-0.103,0.084-0.2,0.163-0.309,0.248c1.098,0.261,2.007,0.922,2.559,1.874c0.977,1.692,0.4,3.856-1.292,4.833     c-0.836,0.485-1.782,0.582-2.649,0.358c-3.814,1.261-17.599,9.981-28.903,17.841C455.391,443.62,454.692,443.832,453.978,443.832     z M274.83,115.428c-1.226,0.819-2.511,1.665-3.839,2.541c3.433-2.004,6.816-3.984,10.115-5.913     C279.032,113.163,276.934,114.288,274.83,115.428z" style="fill:#E97C7D;"/></g><g><path d="M247.322,489.406c-1.155,0-2.284-0.57-2.959-1.596c-1.022-1.57-0.646-3.669,0.861-4.778     c7.714-5.677,15.955-12.025,22.632-17.459c-4.209,2.808-9.682,6.161-16.634,10.291c-3.866,2.517-7.308,4.778-9.77,6.397     c-11.186,7.375-11.177,7.375-12.923,6.962c-0.946-0.224-1.768-0.831-2.256-1.68c-1.24-2.152-0.325-3.856,1.47-5.434     c-0.188-0.176-0.364-0.37-0.521-0.576c-7.192,4.045-11.911,5.84-14.112,5.361c-1.225-0.267-2.229-0.989-2.832-2.025     c-0.852-1.486-0.521-3.366,0.789-4.476c0.494-0.406,0.988-0.831,1.486-1.243c-13.793,8.005-15.067,7.689-16.234,7.398     c-0.928-0.237-1.804-0.886-2.283-1.71c-1.832-3.178,0.042-5.701,8.647-12.335c-6.422,3.99-13.257,8.344-19.8,12.613     c-1.631,1.062-3.806,0.606-4.876-1.019c-0.879-1.328-0.743-3.038,0.23-4.203c-3.806,2.28-4.924,2.469-6.268,2.153     c-0.952-0.225-1.877-0.903-2.365-1.747c-1.552-2.692,0.434-4.56,3.451-7.398c0.546-0.515,1.155-1.085,1.816-1.686     c-18.263,10.831-19.751,10.467-21.01,10.146c-0.928-0.23-1.813-0.892-2.295-1.722c-0.134-0.23-0.237-0.474-0.315-0.716     c-5.658,3.074-6.262,2.923-7.202,2.681c-0.916-0.236-1.713-0.844-2.186-1.668c-1.483-2.584-0.164-3.729,3.763-7.113     c0.4-0.346,0.831-0.716,1.289-1.104c-5.027,3.25-9.782,6.416-13.051,8.593c-12.083,8.054-12.077,8.054-13.942,7.617     c-0.955-0.225-1.792-0.837-2.28-1.687c-1.186-2.056-0.776-3.911,1.71-6.507l-4.376,2.528c-0.813,0.474-1.776,0.595-2.68,0.358     c-0.904-0.249-1.677-0.837-2.147-1.655c-0.652-1.129-0.74-2.05-0.315-2.984c-5.885,3.402-11.543,6.671-16.122,9.315     c-0.807,0.467-1.771,0.601-2.68,0.352c-0.904-0.236-1.677-0.831-2.144-1.644c-0.655-1.134-0.846-2.11-0.412-3.202     c-5.373,3.287-7.932,4.136-9.964,3.693c-1.164-0.261-2.128-0.964-2.714-1.971c-0.946-1.644-0.906-3.13,0.528-5.033     c-3.772,2.413-4.093,2.334-5.328,2.043c-0.946-0.224-1.768-0.83-2.253-1.667c-0.531-0.922-0.606-1.996-0.279-2.93l-1.992,1.152     c-1.574,0.91-3.578,0.467-4.639-1.007c-1.056-1.479-0.822-3.517,0.542-4.706c0.246-0.218,0.491-0.43,0.74-0.648l-0.467,0.261     c-1.468,0.854-3.333,0.54-4.439-0.746c-0.57-0.661-0.858-1.485-0.858-2.305c-9.178,6.556-11.646,8.06-14.185,7.496     c-1.088-0.23-2.028-0.916-2.574-1.862c-0.849-1.467-0.534-3.329,0.746-4.433c2.932-2.541,5.992-5.276,8.872-7.933l0,0     c-0.309,0-0.616-0.042-0.916-0.121c-0.904-0.248-1.677-0.831-2.147-1.644c-1.037-1.807-0.813-3.22,1.865-6.792     c-10.485,6.392-12.095,6.514-13.803,6.095c-1.021-0.242-1.874-0.873-2.392-1.776c-0.901-1.559-0.485-3.542,0.964-4.604     c1.116-0.824,2.247-1.668,3.381-2.528c-1.531,0.703-3.384,0.23-4.373-1.195c-1.08-1.552-0.749-3.681,0.755-4.827     c0.688-0.527,1.38-1.055,2.074-1.601c-0.691,0.163-1.268,0.146-1.856,0.006c-1.028-0.23-1.916-0.873-2.435-1.783     c-0.907-1.57-0.473-3.584,1.013-4.639c0.021-0.013,0.045-0.036,0.07-0.055c-0.776,0.164-1.431,0.157-2.044,0.019     c-1.098-0.255-2.007-0.916-2.556-1.868c-0.873-1.517-0.506-3.438,0.858-4.53c1.622-1.298,3.274-2.626,4.912-3.954     c-0.661-0.176-1.28-0.546-1.759-1.098c-1.219-1.407-1.134-3.529,0.194-4.839l1.646-1.613c-0.125-0.019-0.249-0.043-0.373-0.061     c-1.128-0.23-2.099-0.934-2.668-1.916c-0.152-0.262-0.27-0.516-0.358-0.753c-4.512,2.596-5.349,2.603-6.641,2.28     c-0.931-0.23-1.792-0.873-2.274-1.704c-1.917-3.323,0.197-6.664,9.087-13.535c-1.567-2.802,0.085-4.815,6.413-10.674     c-0.94-0.303-1.722-0.928-2.213-1.788c-0.825-1.42-0.555-3.221,0.643-4.343l3.026-2.832c-1.589,1.11-3.163,2.226-4.682,3.317     c-1.535,1.104-3.666,0.807-4.839-0.68c-1.174-1.485-0.964-3.626,0.473-4.869l5.24-4.506c-0.967-0.055-1.91-0.504-2.559-1.316     c-1.143-1.425-1.004-3.486,0.315-4.754l5.228-5.016c-5.883,3.372-6.959,3.402-8.335,3.068c-0.931-0.23-1.832-0.903-2.308-1.734     c-0.709-1.23-0.946-2.328-0.243-3.735c-0.045-0.012-0.091-0.024-0.133-0.036c-0.916-0.243-1.695-0.831-2.168-1.649     c-0.613-1.062-0.81-1.995-0.44-3.026c-0.715-0.285-1.349-0.801-1.765-1.516c-1.78-3.087-0.009-5.537,10.525-14.598     c0.23-0.2,0.461-0.4,0.694-0.601c-0.258-0.248-0.479-0.539-0.664-0.854c-0.992-1.717-1.022-3.129,1.292-5.768     c-0.521-0.309-0.961-0.746-1.273-1.273c-0.615-1.062-0.622-2.341-0.091-3.384c-0.907-0.242-1.695-0.837-2.168-1.655     c-1.435-2.493,0.236-4.385,3.014-7.514c0.101-0.109,0.2-0.225,0.304-0.34c-0.155-0.024-0.3-0.061-0.464-0.104     c-1.334-0.357-2.337-1.449-2.58-2.808c-0.17-0.977,0.079-1.971,0.658-2.741c-0.913-0.303-1.662-0.916-2.144-1.746     c-0.934-1.613-2.177-3.767,5.922-11.626c-0.285-0.255-0.531-0.546-0.722-0.885c-0.943-1.613-0.958-2.493,0.734-4.476     c-3.399,2.001-6.756,3.984-9.594,5.658c-1.622,0.964-3.711,0.484-4.748-1.08c-1.04-1.576-0.661-3.687,0.858-4.803     c2.769-2.025,5.583-4.111,8.363-6.191c-0.209-0.013-0.412-0.037-0.612-0.092c-0.943-0.206-1.753-0.8-2.244-1.631     c-1.261-2.104-0.167-3.633,1.113-4.712l-0.027-0.049c0.151-0.097,0.3-0.188,0.452-0.291c0.306-0.236,0.616-0.442,0.888-0.637     c0.834-0.576,1.649-1.14,2.441-1.686c-0.349-0.212-0.664-0.491-0.931-0.837c-0.849-1.086-0.973-2.517-0.413-3.693     c-1.401,0.395-2.953-0.115-3.835-1.358c-1.083-1.522-0.786-3.633,0.676-4.797l7.028-5.622c-0.073-0.103-0.14-0.212-0.203-0.314     c-0.546-0.946-0.606-2.057-0.239-3.026c-2.753,1.776-5.516,3.584-8.169,5.354c-0.813,0.546-1.807,0.728-2.766,0.497     c-0.949-0.212-1.765-0.818-2.253-1.667c-1.722-2.984,0.874-5.191,4.794-8.53c1.268-1.076,2.763-2.304,4.397-3.635     c-1.271,0.825-2.532,1.652-3.778,2.471c-1.537,1.019-3.605,0.676-4.739-0.788c-1.131-1.462-0.94-3.548,0.434-4.782     c1.504-1.355,3.114-2.808,4.767-4.312c-1.595,0.934-3.657,0.473-4.703-1.073c-1.064-1.571-0.691-3.706,0.84-4.827     c1.043-0.765,2.095-1.544,3.156-2.341c-1.061,0.3-1.853,0.3-2.592,0.127c-1.064-0.249-1.95-0.903-2.486-1.834     c-1.143-1.98-1.628-2.814,7.289-11.349c-0.379,0.003-0.734-0.031-1.08-0.109c-1.146-0.249-2.095-0.937-2.674-1.932     c-0.977-1.698-0.934-2.975,1.073-5.288c-0.361,0.021-0.625-0.055-0.925-0.13c-0.925-0.236-1.734-0.846-2.21-1.67     c-1.461-2.532-0.931-4.9,5.443-10.422c-0.127-0.151-0.243-0.315-0.343-0.494c-1.51-2.617,0.604-4.415,1.898-5.304     c-2.62,0.971-4.439,1.237-5.719,0.925c-1.219-0.288-2.216-1.019-2.811-2.053c-0.925-1.598-0.461-3.635,1.061-4.682l10.009-6.858     c-0.294-0.024-0.573-0.067-0.84-0.125c-1.586-0.346-2.884-1.271-3.651-2.602c-0.946-1.637-0.437-3.73,1.161-4.746l4.297-2.741     c-0.188-0.227-0.358-0.47-0.506-0.728c-0.904-1.562-0.482-3.557,0.976-4.618l10.167-7.414     c-16.75,9.636-17.338,9.479-18.781,9.106c-0.91-0.24-1.71-0.846-2.183-1.665c-0.918-1.595-0.458-3.632,1.061-4.679l9.545-6.549     l-4.545,2.626c-0.813,0.47-1.774,0.597-2.681,0.352c-0.904-0.243-1.677-0.837-2.147-1.646c-1.789-3.099,0.203-5.427,9.124-12.271     c-0.115-0.019-0.225-0.042-0.336-0.073c-0.907-0.243-1.677-0.834-2.147-1.646c-2.001-3.466,0.403-6.62,12.217-15.261     c-4.291,2.784-8.587,5.601-12.808,8.402c-0.815,0.54-1.816,0.715-2.762,0.491c-0.949-0.218-1.765-0.825-2.253-1.668     c-1.886-3.274,0.409-5.455,11.059-13.363c0.564-0.418,1.146-0.849,1.755-1.294c-0.612-0.31-1.128-0.789-1.474-1.389     c-1.146-1.98-0.212-3.472,0.964-4.594l-0.006-0.012c0.003-0.009,0.042-0.034,0.112-0.085c0.391-0.361,0.797-0.686,1.165-0.97     c0.885-0.691,2.156-1.68,3.699-2.872c2.198-1.704,5.792-4.482,9.764-7.611c-1.313,0.925-2.493,1.768-3.481,2.465     c-9.439,6.71-10.421,7.414-12.487,6.962c-0.967-0.212-1.861-0.858-2.355-1.719c-1.85-3.202,1.091-5.446,6.431-9.519     c1.677-1.27,3.72-2.783,6.113-4.518l-1.21-2.45c1.116-0.582,17.102-9.845,27.575-15.928c1.644-0.958,3.754-0.44,4.764,1.17     c0.67,1.067,0.704,2.354,0.194,3.415c0.643,0.397,1.177,0.94,1.556,1.604c0.327,0.567,0.537,1.106,0.585,1.677     c12.259-6.926,15.106-6.331,16.695-6c1.465,0.303,2.656,1.14,3.363,2.356c0.725,1.264,0.591,2.799-0.249,3.902     c3.205-1.18,4.251-0.931,5.124-0.728c1.162,0.272,2.114,0.97,2.687,1.961c2.008,3.481-1.349,5.831-8.708,10.971     c-3.427,2.392-7.784,5.321-12.563,8.505l7.432-4.291c1.65-0.952,3.763-0.427,4.77,1.195c1,1.62,0.54,3.748-1.046,4.803     c-6.904,4.591-13.979,9.36-20.831,14.036l31.978-18.46c1.641-0.952,3.742-0.431,4.751,1.17c1.013,1.61,0.576,3.724-0.989,4.8     l-10.182,6.986c1.498-0.53,3.211,0.012,4.124,1.389c1.037,1.574,0.652,3.687-0.87,4.8l-31.38,22.887l43.867-27.969     c1.61-1.025,3.745-0.588,4.818,0.995c0.734,1.076,0.792,2.417,0.264,3.518c0.473,0.346,0.87,0.785,1.17,1.304     c0.922,1.598,0.461,3.636-1.062,4.679l-6.137,4.208c18.927-11.917,25.958-15.37,29.224-14.591     c1.137,0.273,2.071,0.961,2.638,1.935c2.962,5.143,0.336,10.479-87.221,63.664c-0.524,1.355-1.958,2.405-3.123,3.254     c-1.204,0.882-2.926,2.095-4.952,3.526c-0.434,0.303-0.913,0.643-1.431,1.013c0.776,0.279,1.434,0.831,1.853,1.552     c0.831,1.446,0.627,2.711-0.17,3.963c0.825-0.234,1.489-0.234,2.177-0.079c1.046,0.23,1.95,0.889,2.48,1.804     c0.834,1.443,0.543,3.278-0.7,4.394c-3.154,2.835-6.398,5.767-9.536,8.633c3.966-2.52,4.772-2.699,6.194-2.362     c0.946,0.225,1.801,0.855,2.29,1.701c0.864,1.498,1.917,3.317-3.754,9.275c0.555,0.318,1.028,0.776,1.343,1.325     c1.095,1.895,0.609,3.193-1.446,5.403c4.281-2.065,5.297-1.822,6.07-1.644c1.043,0.249,1.904,0.882,2.426,1.789     c1.276,2.208,1.034,3.854-4.203,8.703c1.088-0.252,1.595-0.131,2.013-0.037c1.062,0.249,1.938,0.888,2.468,1.813     c1.319,2.28,0.179,3.803-2.429,6.252c0.313,0.215,0.594,0.482,0.828,0.807c1.131,1.525,0.849,3.672-0.634,4.861l-0.854,0.679     c0.445,0.31,0.828,0.71,1.097,1.171c0.395,0.685,0.537,1.461,0.446,2.201c2.526-1.013,3.348-0.824,3.96-0.683     c1.064,0.246,1.947,0.889,2.48,1.813c0.952,1.649,0.904,3.099-1.022,5.355c0.397,0.297,0.734,0.673,0.992,1.121     c1.234,2.129,2.013,3.481-10.691,13.742c0.282,0.255,0.521,0.546,0.709,0.867c0.719,1.249,0.888,2.268-0.04,3.918     c0.591-0.322,1.092-0.576,1.522-0.795c0.082-0.061,0.157-0.115,0.236-0.176l0.033,0.049c1.889-0.91,2.29-0.801,2.972-0.619     c1.313,0.346,2.311,1.42,2.565,2.754c0.254,1.334-0.276,2.692-1.368,3.499c-2.429,1.795-4.924,3.693-7.368,5.609     c5.254-3.444,6.061-3.699,7.656-3.329c0.949,0.218,1.807,0.849,2.295,1.697c1.765,3.063,0.37,5.664-11.659,14.943     c0.331,1.722-0.882,3.238-2.65,5.228c0.601-0.358,1.195-0.716,1.786-1.073c0.813-0.485,1.786-0.631,2.705-0.395     c0.919,0.23,1.704,0.831,2.177,1.655c0.418,0.71,0.591,1.358,0.549,1.971c0.704-0.291,1.492-0.346,2.235-0.146     c0.913,0.243,1.688,0.831,2.162,1.649c1.568,2.705-0.673,4.53-2.468,5.992c-0.246,0.2-0.516,0.418-0.81,0.648     c0.631,0.315,1.167,0.813,1.52,1.419c1.522,2.645-0.673,4.434-2.129,5.622c-0.846,0.691-2.068,1.674-3.539,2.851     c-0.792,0.637-1.798,1.449-2.954,2.377l3.157-1.819c0.813-0.473,1.777-0.595,2.681-0.357c0.903,0.248,1.677,0.837,2.146,1.649     c0.27,0.467,0.434,0.922,0.503,1.358c2.568-1.243,3.054-1.122,3.787-0.928c0.916,0.236,1.704,0.837,2.177,1.655     c1.304,2.256,0.127,3.881-1.819,5.47c0.704,0.304,1.304,0.831,1.689,1.492c0.81,1.407,0.561,3.189-0.615,4.317l-5.461,5.24     c2.514-1.043,3.287-0.867,3.927-0.716c1.031,0.242,1.889,0.873,2.408,1.776c0.849,1.474,0.534,3.342-0.758,4.445l-4.003,3.438     c0.104,0.024,0.191,0.043,0.27,0.055c1.186,0.255,2.159,0.952,2.747,1.971c0.819,1.419,0.555,3.221-0.646,4.343l-8.189,7.671     c0.382,0.279,0.703,0.644,0.934,1.05c1.207,2.086,0.67,4.063-1.992,7.186l1.331-0.764c0.813-0.467,1.777-0.601,2.681-0.352     c0.907,0.236,1.677,0.83,2.146,1.644c1.674,2.91-0.903,4.979-3.359,6.792c0.143,0.03,0.285,0.061,0.434,0.103     c0.928,0.23,1.78,0.861,2.259,1.687c1.056,1.831,1.104,3.408-1.925,6.507c0.018,0.042,0.04,0.072,0.058,0.103     c0.807,1.401,0.564,3.16-0.585,4.288l-0.218,0.218c0.379,0.007,0.648,0.061,0.852,0.098c1.255,0.248,2.287,0.977,2.902,2.05     c0.81,1.4,0.664,2.649-0.118,3.954c0.585-0.104,1.088-0.073,1.598,0.042c1.021,0.236,1.907,0.886,2.426,1.783     c0.858,1.485,1.895,3.286-3.254,8.763c0.395,0.31,0.728,0.686,0.986,1.128c0.7,1.219,1.482,2.571-1.083,6.077     c0.094,0.023,0.182,0.048,0.267,0.066c0.937,0.23,1.804,0.873,2.283,1.71c0.601,1.037,1.292,2.231-0.148,4.791     c0.758-0.31,1.14-0.219,1.853-0.036c0.943,0.218,1.75,0.83,2.229,1.667c1.274,2.208,0.871,3.178-4.045,9l0.746-0.431     c1.689-0.982,3.851-0.4,4.824,1.292c0.734,1.267,1.477,2.553-1.601,6.652c0.743-0.158,1.401-0.158,2.035-0.019     c1.146,0.249,2.092,0.928,2.666,1.923c0.306,0.54,0.464,1.128,0.473,1.722l13.423-7.75c1.692-0.971,3.851-0.395,4.824,1.292     c0.976,1.691,0.627,2.989-0.749,4.657l0.676-0.388c1.688-0.977,3.854-0.4,4.827,1.291c0.194,0.334,0.349,0.674,0.449,1.013     c15.901-9.976,20.531-11.625,23.227-10.994c1.143,0.267,2.086,0.958,2.656,1.94c0.545,0.946,0.761,1.844,0.567,2.796     c2.541-1.201,4.185-1.492,5.561-1.183c1.188,0.261,2.165,0.977,2.756,1.995c0.937,1.619,0.946,3.172-0.288,5.106l3.369-1.947     c9.5-5.47,9.5-5.47,10.928-5.088c0.903,0.249,1.674,0.837,2.144,1.644c0.631,1.092,0.77,1.995,0.382,2.941l8.011-4.634     c0.813-0.467,1.777-0.588,2.68-0.345c0.907,0.242,1.677,0.83,2.144,1.648c0.567,0.977,0.779,1.929,0.597,2.936     c5.191-2.717,8.051-3.475,9.949-3.038c1.192,0.279,2.168,0.994,2.756,2.014c0.916,1.589,0.491,2.868-0.346,3.96     c3.147-1.868,6.17-3.663,8.848-5.264c0.816-0.492,1.783-0.631,2.702-0.395c0.916,0.236,1.701,0.831,2.174,1.655     c0.252,0.442,0.437,0.886,0.537,1.328c3.184-1.959,6.398-3.954,9.54-5.919c0.813-0.509,1.798-0.673,2.732-0.431     c0.931,0.23,1.725,0.831,2.201,1.662c1.025,1.765,1.046,3.159-1.795,6.44c11.489-7.381,16.386-9.697,19.3-9.012     c1.165,0.267,2.125,0.971,2.708,1.977c0.41,0.71,0.834,1.443,0.652,2.535c7.038-3.565,8.375-3.244,9.178-3.051     c1.058,0.255,1.935,0.898,2.462,1.813c1.438,2.493,0.449,4.804-3.905,8.721c2.317-1.438,4.639-2.874,6.922-4.306     c0.813-0.51,1.798-0.661,2.726-0.431c0.931,0.23,1.725,0.831,2.205,1.662c1.346,2.328,1.049,3.875-6.256,10.722     c5.58-3.639,11.52-7.678,17.038-11.589c1.559-1.11,3.705-0.771,4.86,0.745c0.213,0.285,0.373,0.583,0.488,0.892     c10.167-6.919,14.042-8.812,16.904-8.175c1.207,0.268,2.195,0.982,2.79,2.02c0.024,0.043,0.049,0.079,0.072,0.128     c2.954-1.231,4.864-1.565,6.186-1.256c1.165,0.279,2.123,0.982,2.705,1.983c0.861,1.485,1.734,3.008-3.232,8.266l17.356-10.019     c0.818-0.467,1.776-0.594,2.687-0.352c0.818,0.219,1.528,0.728,2.008,1.432c5.827-3.147,9.126-4.063,11.376-3.554     c1.304,0.291,2.371,1.066,3.002,2.164c0.897,1.553,0.491,3.53-0.946,4.604c-1.358,1.007-2.729,2.037-4.111,3.08     c6.537-3.305,7.98-2.965,8.757-2.789c1.098,0.255,2.008,0.922,2.56,1.868c0.448,0.776,0.854,1.485,0.546,2.692     c19.69-12.135,22.583-11.474,23.718-11.213c1.134,0.254,2.056,0.928,2.613,1.897c0.364,0.625,0.51,1.316,0.473,1.983     c3.015-1.334,3.699-1.164,4.318-1.007c0.934,0.23,1.801,0.886,2.28,1.71c0.146,0.255,0.267,0.498,0.357,0.746     c5.058-2.413,6.24-2.141,7.277-1.892c1.098,0.261,2.008,0.922,2.56,1.867c0.715,1.243,0.594,2.766-0.23,3.876l5.464-3.154     c1.68-0.97,3.851-0.394,4.821,1.298c1.315,2.263,0.17,4.033-2.596,6.72l20.85-12.038c1.606-0.934,3.656-0.461,4.693,1.073     c0.516,0.765,0.691,1.656,0.57,2.511c1.019-0.2,1.521-0.085,1.874,0c1.122,0.255,2.056,0.922,2.613,1.893     c0.946,1.644,0.788,3.141-0.716,5.105l15.397-8.89c1.687-0.971,3.839-0.4,4.821,1.285c0.952,1.638,0.504,2.923-0.321,3.888     l48.14-27.781c1.686-0.977,3.851-0.4,4.826,1.292c0.691,1.188,0.844,2.613,0.438,4.015c-0.279,0.946-0.85,1.929-1.723,2.983     c0.255,0.728,0.255,1.504,0.03,2.22c0.57-0.121,0.946-0.03,1.456,0.085c0.945,0.23,1.782,0.849,2.268,1.691     c0.934,1.626,0.442,3.693-1.116,4.713c-4.96,3.262-10,6.652-14.888,10.023c2.129-0.915,3.584-1.121,4.821-0.849     c1.17,0.273,2.129,0.971,2.711,1.978c0.982,1.686,0.394,3.845-1.292,4.82c-0.916,0.534-1.965,0.613-2.898,0.298     c-3.457,1.188-14.082,8.478-21.256,13.408c-16.271,11.177-19.369,12.887-22.147,12.269c-1.085-0.249-1.982-0.91-2.528-1.856     c-0.619-1.067-0.988-2.165-0.425-3.724c-8.976,5.016-13.518,6.556-16.052,5.949c-1.092-0.254-2.008-0.861-2.614-1.722     c-3.851,1.268-5.349,0.952-6.319,0.745c-1.54-0.327-2.783-1.2-3.518-2.462c-0.206-0.363-0.357-0.745-0.461-1.14l-1.892,1.092     c-1.692,0.976-3.851,0.4-4.827-1.292c-0.637-1.098-0.867-2.159-0.382-3.469l-6.234,3.59c-0.813,0.474-1.777,0.601-2.681,0.358     c-0.903-0.243-1.68-0.831-2.146-1.65c-1.328-2.298-0.546-4.172,3.202-7.616c-4.003,2.596-8.097,5.318-11.972,7.975     c-1.576,1.073-3.711,0.716-4.845-0.831c-0.674-0.916-0.837-2.062-0.534-3.074l-13.608,7.847     c-1.589,0.916-3.614,0.461-4.657-1.043c-1.056-1.51-0.771-3.56,0.643-4.736c1.54-1.279,3.099-2.577,4.657-3.887l-15.73,9.084     c-0.813,0.467-1.777,0.601-2.681,0.352c-0.91-0.236-1.68-0.837-2.146-1.644c-1.517-2.632,0.637-4.463,2.213-5.791     c0.455-0.395,1.013-0.855,1.656-1.377c-5.403,3.433-10.977,7.053-16.35,10.619c-1.619,1.079-3.791,0.648-4.889-0.958     c-0.521-0.789-0.697-1.704-0.552-2.565c-0.509,0.315-1.013,0.625-1.516,0.934c-0.807,0.51-1.789,0.661-2.723,0.431     c-0.922-0.23-1.71-0.837-2.195-1.661c-0.601-1.037-0.71-1.978-0.389-2.924c-1.104,0.03-2.213-0.424-2.935-1.346     c-1.146-1.462-0.971-3.561,0.412-4.803c2.341-2.111,4.785-4.385,7.102-6.593c-7.459,4.506-16.822,10.522-25.459,16.35     c-0.806,0.546-1.813,0.728-2.765,0.51c-0.952-0.219-1.777-0.825-2.263-1.68c-0.976-1.687-2.037-3.512,6.417-11.456     c-2.426,1.644-4.615,3.153-6.38,4.36c-11.777,8.096-11.777,8.078-13.699,7.647c-0.965-0.213-1.826-0.843-2.317-1.692     c-0.424-0.745-0.661-1.449-0.624-2.188l-13.909,8.028C248.531,489.254,247.922,489.406,247.322,489.406z" style="fill:#E97C7D;"/></g></g></g><g id="Layer_1"/></svg>