<svg xmlns="http://www.w3.org/2000/svg" xmlns:xlink="http://www.w3.org/1999/xlink" viewBox="0 0 64 64" version="1.1" width="64" height="64">
<g id="surface1">
<path style=" fill:#85CBF8;" d="M 5 11 L 57 11 L 57 57 L 5 57 Z "/>
<path style=" fill:#ED7899;" d="M 9 51 L 53 51 C 55.210938 51 57 52.789063 57 55 L 57 56 C 57 56.550781 56.550781 57 56 57 L 6 57 C 5.449219 57 5 56.550781 5 56 L 5 55 C 5 52.789063 6.789063 51 9 51 Z "/>
<path style=" fill:#ACE3FF;" d="M 8 11 L 54 11 C 55.65625 11 57 12.34375 57 14 L 57 19 C 57 20.65625 55.65625 22 54 22 L 8 22 C 6.34375 22 5 20.65625 5 19 L 5 14 C 5 12.34375 6.34375 11 8 11 Z "/>
<path style=" fill:#FFEFB8;" d="M 15 5 C 16.105469 5 17 5.894531 17 7 L 17 15 C 17 16.105469 16.105469 17 15 17 C 13.894531 17 13 16.105469 13 15 L 13 7 C 13 5.894531 13.894531 5 15 5 Z "/>
<path style=" fill:#FFEFB8;" d="M 31 5 C 32.105469 5 33 5.894531 33 7 L 33 15 C 33 16.105469 32.105469 17 31 17 C 29.894531 17 29 16.105469 29 15 L 29 7 C 29 5.894531 29.894531 5 31 5 Z "/>
<path style=" fill:#FFEFB8;" d="M 47 5 C 48.105469 5 49 5.894531 49 7 L 49 15 C 49 16.105469 48.105469 17 47 17 C 45.894531 17 45 16.105469 45 15 L 45 7 C 45 5.894531 45.894531 5 47 5 Z "/>
<path style=" fill:#8D6C9F;" d="M 11 24 C 11.550781 24 12 23.550781 12 23 L 12 21 C 12 20.449219 11.550781 20 11 20 C 10.449219 20 10 20.449219 10 21 L 10 23 C 10 23.550781 10.449219 24 11 24 Z "/>
<path style=" fill:#8D6C9F;" d="M 16 24 C 16.550781 24 17 23.550781 17 23 L 17 21 C 17 20.449219 16.550781 20 16 20 C 15.449219 20 15 20.449219 15 21 L 15 23 C 15 23.550781 15.449219 24 16 24 Z "/>
<path style=" fill:#8D6C9F;" d="M 21 24 C 21.550781 24 22 23.550781 22 23 L 22 21 C 22 20.449219 21.550781 20 21 20 C 20.449219 20 20 20.449219 20 21 L 20 23 C 20 23.550781 20.449219 24 21 24 Z "/>
<path style=" fill:#8D6C9F;" d="M 26 24 C 26.550781 24 27 23.550781 27 23 L 27 21 C 27 20.449219 26.550781 20 26 20 C 25.449219 20 25 20.449219 25 21 L 25 23 C 25 23.550781 25.449219 24 26 24 Z "/>
<path style=" fill:#8D6C9F;" d="M 31 24 C 31.550781 24 32 23.550781 32 23 L 32 21 C 32 20.449219 31.550781 20 31 20 C 30.449219 20 30 20.449219 30 21 L 30 23 C 30 23.550781 30.449219 24 31 24 Z "/>
<path style=" fill:#8D6C9F;" d="M 36 24 C 36.550781 24 37 23.550781 37 23 L 37 21 C 37 20.449219 36.550781 20 36 20 C 35.449219 20 35 20.449219 35 21 L 35 23 C 35 23.550781 35.449219 24 36 24 Z "/>
<path style=" fill:#8D6C9F;" d="M 41 24 C 41.550781 24 42 23.550781 42 23 L 42 21 C 42 20.449219 41.550781 20 41 20 C 40.449219 20 40 20.449219 40 21 L 40 23 C 40 23.550781 40.449219 24 41 24 Z "/>
<path style=" fill:#8D6C9F;" d="M 46 24 C 46.550781 24 47 23.550781 47 23 L 47 21 C 47 20.449219 46.550781 20 46 20 C 45.449219 20 45 20.449219 45 21 L 45 23 C 45 23.550781 45.449219 24 46 24 Z "/>
<path style=" fill:#8D6C9F;" d="M 51 24 C 51.550781 24 52 23.550781 52 23 L 52 21 C 52 20.449219 51.550781 20 51 20 C 50.449219 20 50 20.449219 50 21 L 50 23 C 50 23.550781 50.449219 24 51 24 Z "/>
<path style=" fill:#8D6C9F;" d="M 53 50 L 9 50 C 8.449219 50 8 50.449219 8 51 C 8 51.550781 8.449219 52 9 52 L 53 52 C 53.550781 52 54 51.550781 54 51 C 54 50.449219 53.550781 50 53 50 Z "/>
<path style=" fill:#8D6C9F;" d="M 55 10 L 50 10 L 50 7 C 50 5.34375 48.65625 4 47 4 C 45.34375 4 44 5.34375 44 7 L 44 10 L 34 10 L 34 7 C 34 5.34375 32.65625 4 31 4 C 29.34375 4 28 5.34375 28 7 L 28 10 L 18 10 L 18 7 C 18 5.34375 16.65625 4 15 4 C 13.34375 4 12 5.34375 12 7 L 12 10 L 7 10 C 5.34375 10 4 11.34375 4 13 L 4 55 C 4 56.65625 5.34375 58 7 58 L 55 58 C 56.65625 58 58 56.65625 58 55 L 58 13 C 58 11.34375 56.65625 10 55 10 Z M 46 7 C 46 6.449219 46.449219 6 47 6 C 47.550781 6 48 6.449219 48 7 L 48 15 C 48 15.550781 47.550781 16 47 16 C 46.449219 16 46 15.550781 46 15 Z M 30 7 C 30 6.449219 30.449219 6 31 6 C 31.550781 6 32 6.449219 32 7 L 32 15 C 32 15.550781 31.550781 16 31 16 C 30.449219 16 30 15.550781 30 15 Z M 14 7 C 14 6.449219 14.449219 6 15 6 C 15.550781 6 16 6.449219 16 7 L 16 15 C 16 15.550781 15.550781 16 15 16 C 14.449219 16 14 15.550781 14 15 Z M 56 55 C 56 55.550781 55.550781 56 55 56 L 7 56 C 6.449219 56 6 55.550781 6 55 L 6 24 C 6.550781 24 7 23.550781 7 23 L 7 21 C 7 20.449219 6.550781 20 6 20 L 6 13 C 6 12.449219 6.449219 12 7 12 L 12 12 L 12 15 C 12 16.65625 13.34375 18 15 18 C 16.65625 18 18 16.65625 18 15 L 18 12 L 28 12 L 28 15 C 28 16.65625 29.34375 18 31 18 C 32.65625 18 34 16.65625 34 15 L 34 12 L 44 12 L 44 15 C 44 16.65625 45.34375 18 47 18 C 48.65625 18 50 16.65625 50 15 L 50 12 L 55 12 C 55.550781 12 56 12.449219 56 13 L 56 20 C 55.449219 20 55 20.449219 55 21 L 55 23 C 55 23.550781 55.449219 24 56 24 Z "/>
<path style=" fill:#FFFFFF;" d="M 34.601563 35.46875 C 34.859375 35.023438 34.996094 34.515625 35 34 L 35 31 C 35 29.34375 33.65625 28 32 28 L 30 28 C 28.34375 28 27 29.34375 27 31 L 27 34 C 27.003906 34.515625 27.140625 35.023438 27.398438 35.46875 C 26.53125 36.019531 26.003906 36.972656 26 38 L 26 43 C 26 44.65625 27.34375 46 29 46 L 33 46 C 34.65625 46 36 44.65625 36 43 L 36 38 C 35.996094 36.972656 35.46875 36.019531 34.601563 35.46875 Z M 29 31 C 29 30.449219 29.449219 30 30 30 L 32 30 C 32.550781 30 33 30.449219 33 31 L 33 34 C 33 34.550781 32.550781 35 32 35 L 30 35 C 29.449219 35 29 34.550781 29 34 Z M 34 43 C 34 43.550781 33.550781 44 33 44 L 29 44 C 28.449219 44 28 43.550781 28 43 L 28 38 C 28 37.449219 28.449219 37 29 37 L 33 37 C 33.550781 37 34 37.449219 34 38 Z "/>
<path style=" fill:#9FDDFF;" d="M 14.5 33 L 15.738281 35.261719 L 18 36.5 L 15.738281 37.738281 L 14.5 40 L 13.261719 37.738281 L 11 36.5 L 13.261719 35.261719 Z "/>
<path style=" fill:#9FDDFF;" d="M 44.421875 31 L 45.269531 32.558594 L 46.839844 33.421875 L 45.269531 34.269531 L 44.421875 35.839844 L 43.558594 34.269531 L 42 33.421875 L 43.558594 32.558594 Z "/>
<path style=" fill:#9FDDFF;" d="M 49.351563 41 L 49.941406 42.058594 L 51 42.648438 L 49.941406 43.230469 L 49.351563 44.300781 L 48.769531 43.230469 L 47.699219 42.648438 L 48.769531 42.058594 Z "/>
</g>
</svg>